<svg width="150" height="156.2528055841379" viewBox="0 0 150 156.2528055841379" class="css-1j8o68f">
  <defs id="SvgjsDefs1399"></defs>
  <g id="SvgjsG1400" featurekey="e7LhAk-0"
    transform="matrix(5.356205525262396,0,0,5.356205525262396,-10.69140536646254,-21.424822101049585)" fill="#0074e4">
    <g xmlns="http://www.w3.org/2000/svg" transform="translate(0,-1020.3622)">
      <path
        style="text-indent:0;text-transform:none;direction:ltr;block-progression:tb;baseline-shift:baseline;color:;enable-background:accumulate;"
        d="M 4.5 4 C 4.2382078 4 4.0000262 4.2382 4 4.5 L 4 6.0625 L 4 7.625 L 2.1875 9.3125 A 0.50004995 0.50004995 0 0 0 2.03125 9.65625 L 2 10.375 A 0.50004995 0.50004995 0 0 0 2 10.5 L 2 10.71875 A 0.50004995 0.50004995 0 0 0 2 10.84375 L 2 11 C 2 12.0994 2.9006486 13 4 13 L 4 13.5 L 4 22.5 C 3.9997815 22.517 3.9984826 22.5455 4 22.5625 C 4.00322 22.5955 4.021489 22.62425 4.03125 22.65625 C 4.03632 22.67225 4.024609 22.6725 4.03125 22.6875 C 4.050762 22.7335 4.092818 22.7745 4.125 22.8125 C 4.136079 22.8255 4.143912 22.83175 4.15625 22.84375 C 4.180141 22.86675 4.19073 22.88825 4.21875 22.90625 C 4.260924 22.93325 4.3267153 22.95575 4.375 22.96875 C 4.418243 22.98075 4.4552345 23 4.5 23 L 12 23 L 12 26 L 9 26 L 9 27 L 12.40625 27 L 19.59375 27 L 23 27 L 23 26 L 20 26 L 20 23 L 27.5 23 C 27.53343 23 27.56099 23.01 27.59375 23 C 27.62651 22.99 27.65667 22.98175 27.6875 22.96875 C 27.70283 22.95875 27.73541 22.9455 27.75 22.9375 C 27.77915 22.9215 27.78715 22.897 27.8125 22.875 C 27.83818 22.854 27.88521 22.8385 27.90625 22.8125 C 27.91605 22.7995 27.89782 22.79525 27.90625 22.78125 C 27.91545 22.76725 27.92976 22.73375 27.9375 22.71875 C 27.9455 22.70375 27.96241 22.7035 27.96875 22.6875 C 27.97475 22.6725 27.96432 22.641 27.96875 22.625 C 27.97285 22.609 27.9976 22.60975 28 22.59375 C 28.0028 22.57775 27.9988 22.54725 28 22.53125 C 28.0011 22.51925 27.9998 22.512 28 22.5 L 28 13.5 L 28 13 C 29.099351 13 30 12.0994 30 11 L 30 10.84375 L 30 10.78125 A 0.50004995 0.50004995 0 0 0 30 10.71875 L 30 10.4375 L 30 10.40625 A 0.50004995 0.50004995 0 0 0 30 10.34375 L 29.96875 9.65625 A 0.50004995 0.50004995 0 0 0 29.8125 9.3125 L 28 7.625 L 28 4.5 C 27.999974 4.2382 27.761792 4 27.5 4 L 20.625 4 L 18.15625 4 L 4.5 4 z M 5 5 L 18.15625 5 L 20.625 5 L 27 5 L 27 6.6875 L 26.40625 6.125 A 0.50004995 0.50004995 0 0 0 26.0625 6 L 15.0625 6 L 14.9375 6 L 13.59375 6 L 5.9375 6 A 0.50004995 0.50004995 0 0 0 5.78125 6 A 0.50004995 0.50004995 0 0 0 5.59375 6.125 L 5 6.6875 L 5 5.96875 L 5 5 z M 6.125 7 L 13.71875 7 L 14.9375 7 L 15 7 L 25.875 7 L 27.46875 8.46875 L 4.46875 8.53125 L 6.125 7 z M 28.53125 9.46875 L 28.96875 9.875 L 29 10.34375 A 0.50004995 0.50004995 0 0 0 29 10.375 L 29 10.4375 L 29 10.71875 L 29 10.75 A 0.50004995 0.50004995 0 0 0 29 10.8125 L 29 10.84375 L 29 11 C 29 11.5626 28.562649 12 28 12 C 27.437351 12 27 11.5626 27 11 A 0.50004995 0.50004995 0 0 0 26.5 10.5 A 0.50004995 0.50004995 0 0 0 26 11 C 26 11.5626 25.562649 12 25 12 C 24.437351 12 24 11.5626 24 11 A 0.50004995 0.50004995 0 0 0 23.5 10.5 A 0.50004995 0.50004995 0 0 0 23 11 C 23 11.5626 22.562649 12 22 12 C 21.437351 12 21 11.5626 21 11 A 0.50004995 0.50004995 0 0 0 20.5 10.5 A 0.50004995 0.50004995 0 0 0 20 11 C 20 11.5626 19.562649 12 19 12 C 18.437351 12 18 11.5626 18 11 A 0.50004995 0.50004995 0 0 0 17.5 10.5 A 0.50004995 0.50004995 0 0 0 17 11 C 17 11.5626 16.562649 12 16 12 C 15.437351 12 15 11.5626 15 11 A 0.50004995 0.50004995 0 0 0 14.5 10.5 A 0.50004995 0.50004995 0 0 0 14 11 C 14 11.5626 13.562649 12 13 12 C 12.437351 12 12 11.5626 12 11 A 0.50004995 0.50004995 0 0 0 11.5 10.5 A 0.50004995 0.50004995 0 0 0 11 11 C 11 11.5626 10.562649 12 10 12 C 9.4373514 12 9 11.5626 9 11 A 0.50004995 0.50004995 0 0 0 8 11 C 8 11.5626 7.5626486 12 7 12 C 6.4373514 12 6 11.5626 6 11 A 0.50004995 0.50004995 0 0 0 5.5 10.5 A 0.50004995 0.50004995 0 0 0 5 11 C 5 11.5626 4.5626486 12 4 12 C 3.4373514 12 3 11.5626 3 11 L 3 10.84375 L 3 10.8125 A 0.50004995 0.50004995 0 0 0 3 10.75 L 3 10.71875 L 3 10.5 L 3 10.40625 L 3.03125 9.875 L 3.40625 9.53125 L 28.53125 9.46875 z M 5.5 12.1875 C 5.867115 12.6537 6.3646247 13 7 13 C 7.6353753 13 8.132885 12.6537 8.5 12.1875 C 8.867115 12.6537 9.3646247 13 10 13 C 10.635375 13 11.132885 12.6537 11.5 12.1875 C 11.867115 12.6537 12.364625 13 13 13 C 13.635375 13 14.132885 12.6537 14.5 12.1875 C 14.867115 12.6537 15.364625 13 16 13 C 16.635375 13 17.132885 12.6537 17.5 12.1875 C 17.867115 12.6537 18.364625 13 19 13 C 19.635375 13 20.132885 12.6537 20.5 12.1875 C 20.867115 12.6537 21.364625 13 22 13 C 22.635375 13 23.132885 12.6537 23.5 12.1875 C 23.867115 12.6537 24.364625 13 25 13 C 25.635375 13 26.132885 12.6537 26.5 12.1875 C 26.640397 12.36579 26.821044 12.525695 27 12.65625 L 27 13 L 27 19 L 5 19 L 5 13.5 L 5 13 L 5 12.65625 C 5.1789562 12.525695 5.3596033 12.36579 5.5 12.1875 z M 5 20 L 27 20 L 27 22 L 5 22 L 5 20 z M 13 23 L 19 23 L 19 26 L 13 26 L 13 23 z "
        transform="translate(-5e-7,1020.3622)" fill="#0074e4" fill-opacity="1" fill-rule="nonzero" stroke="none"
        visibility="visible" display="inline" overflow="visible"></path>
    </g>
  </g>
</svg>